# xmcd
#
# Track frame offsets:
#	150
#	11051
#	14973
#	29297
#	44711
#	58112
#	69983
#	81403
#
# Disc length: 1348 seconds
#
# Revision: 1
# Processed by: cddbd v1.5.2PL0 Copyright (c) Steve Scherf et al.
# Submitted via: audiograbber 1.83.01
#
DISCID=70054208
DTITLE=Olli Banjo - Kopfdisco 2CD
DYEAR=2010
DGENRE=Hip-Hop
TTITLE0=Habb
TTITLE1=Badesalz
TTITLE2=Neidfut
TTITLE3=Simon Sagt
TTITLE4=Fick Dein Leben
TTITLE5=Kinderspiel
TTITLE6=Weglaufen
TTITLE7=Einsamer Wolf
EXTD=
EXTT0=
EXTT1=
EXTT2=
EXTT3=
EXTT4=
EXTT5=
EXTT6=
EXTT7=
PLAYORDER=
